<svg width="398" height="711" viewBox="0 0 398 711" fill="none" xmlns="http://www.w3.org/2000/svg">
<rect width="100.482" height="100.482" rx="20" fill="white"/>
<path d="M62.4321 43.5992C63.0582 43.0028 63.8218 42.5664 64.6567 42.3277C65.4917 42.089 66.3728 42.0553 67.2239 42.2294C68.075 42.4036 68.8704 42.7803 69.5412 43.3271C70.212 43.8739 70.7379 44.5741 71.0735 45.3673C71.4091 46.1605 71.5442 47.0227 71.4672 47.8791C71.3901 48.7356 71.1032 49.5606 70.6313 50.2827C70.1594 51.0047 69.5167 51.6021 68.7589 52.0231C68.0011 52.4441 67.1509 52.6759 66.2821 52.6986H28.8516M45.1071 37.0392C45.6027 36.5392 46.2159 36.1686 46.8918 35.9607C47.5677 35.7529 48.2852 35.7142 48.9799 35.8481C49.6746 35.9821 50.3249 36.2845 50.8725 36.7282C51.42 37.172 51.8477 37.7433 52.1172 38.3908C52.3867 39.0383 52.4896 39.7419 52.4166 40.4385C52.3437 41.135 52.0972 41.8028 51.6992 42.3819C51.3012 42.961 50.7642 43.4333 50.1363 43.7566C49.5085 44.0799 48.8093 44.2439 48.1016 44.2341H28.8516M51.5238 68.358C52.0193 68.8581 52.6325 69.2286 53.3084 69.4365C53.9843 69.6444 54.7018 69.6831 55.3966 69.5491C56.0913 69.4152 56.7416 69.1128 57.2891 68.669C57.8367 68.2252 58.2644 67.654 58.5339 67.0064C58.8034 66.3589 58.9063 65.6553 58.8333 64.9588C58.7604 64.2622 58.5138 63.5945 58.1159 63.0154C57.7179 62.4363 57.1809 61.9639 56.553 61.6407C55.9251 61.3174 55.226 61.1533 54.5182 61.1632H28.8516" stroke="black" stroke-width="4" stroke-linecap="round" stroke-linejoin="round"/>
<rect x="128.482" width="100.482" height="100.482" rx="20" fill="#DC2CFF"/>
<path d="M157.744 40.8209C158.987 41.8562 160.229 42.8916 162.921 42.8916C168.097 42.8916 168.097 38.7503 173.274 38.7503C178.657 38.7503 178.243 42.8916 183.627 42.8916C188.804 42.8916 188.804 38.7503 193.98 38.7503C196.672 38.7503 197.914 39.7856 199.157 40.8209M157.744 53.2447C158.987 54.28 160.229 55.3153 162.921 55.3153C168.097 55.3153 168.097 51.1741 173.274 51.1741C178.657 51.1741 178.243 55.3153 183.627 55.3153C188.804 55.3153 188.804 51.1741 193.98 51.1741C196.672 51.1741 197.914 52.2094 199.157 53.2447M157.744 65.6684C158.987 66.7038 160.229 67.7391 162.921 67.7391C168.097 67.7391 168.097 63.5978 173.274 63.5978C178.657 63.5978 178.243 67.7391 183.627 67.7391C188.804 67.7391 188.804 63.5978 193.98 63.5978C196.672 63.5978 197.914 64.6331 199.157 65.6684" stroke="white" stroke-width="4" stroke-linecap="round" stroke-linejoin="round"/>
<rect y="152.482" width="100.482" height="100.482" rx="20" fill="#B83400"/>
<path d="M41.9244 208.526C43.4482 208.526 44.9096 207.914 45.9871 206.826C47.0645 205.738 47.6699 204.262 47.6699 202.723C47.6699 199.521 46.5208 198.082 45.3717 195.761C42.9081 190.787 44.8569 186.352 49.968 181.835C51.1171 187.637 54.5644 193.208 59.1607 196.921C63.757 200.635 66.0552 205.044 66.0552 209.686C66.0552 211.82 65.6391 213.932 64.8306 215.903C64.0222 217.875 62.8372 219.666 61.3434 221.174C59.8495 222.683 58.0761 223.88 56.1243 224.696C54.1725 225.512 52.0806 225.933 49.968 225.933C47.8554 225.933 45.7635 225.512 43.8117 224.696C41.86 223.88 40.0865 222.683 38.5927 221.174C37.0989 219.666 35.9139 217.875 35.1054 215.903C34.297 213.932 33.8809 211.82 33.8809 209.686C33.8809 207.01 34.876 204.362 36.179 202.723C36.179 204.262 36.7843 205.738 37.8618 206.826C38.9393 207.914 40.4007 208.526 41.9244 208.526Z" stroke="white" stroke-width="4" stroke-linecap="round" stroke-linejoin="round"/>
<rect x="128.482" y="152.482" width="100.482" height="100.482" rx="20" fill="#1E1E1E"/>
<path d="M192.626 212.576H196.676C197.892 212.576 198.702 211.766 198.702 210.551V204.476C198.702 202.653 197.284 201.033 195.664 200.628C192.019 199.615 186.551 198.4 186.551 198.4C186.551 198.4 183.918 195.565 182.096 193.742C181.083 192.932 179.868 192.325 178.45 192.325H164.275C163.06 192.325 162.047 193.135 161.439 194.147L158.604 200.02C158.336 200.802 158.199 201.624 158.199 202.45V210.551C158.199 211.766 159.009 212.576 160.224 212.576H164.275M192.626 212.576C192.626 214.813 190.813 216.626 188.576 216.626C186.339 216.626 184.526 214.813 184.526 212.576M192.626 212.576C192.626 210.339 190.813 208.526 188.576 208.526C186.339 208.526 184.526 210.339 184.526 212.576M164.275 212.576C164.275 214.813 166.088 216.626 168.325 216.626C170.562 216.626 172.375 214.813 172.375 212.576M164.275 212.576C164.275 210.339 166.088 208.526 168.325 208.526C170.562 208.526 172.375 210.339 172.375 212.576M172.375 212.576H184.526" stroke="white" stroke-width="4" stroke-linecap="round" stroke-linejoin="round"/>
<rect y="304.965" width="100.482" height="100.482" rx="20" fill="#77FF92"/>
<path d="M49.9677 378.915V372.704M60.3208 362.35L66.5327 369.184C66.8164 369.473 67.009 369.839 67.0865 370.237C67.1641 370.635 67.1231 371.047 66.9688 371.422C66.8145 371.796 66.5536 372.118 66.2184 372.346C65.8832 372.573 65.4885 372.698 65.0832 372.704H34.8521C34.4468 372.698 34.0521 372.573 33.7169 372.346C33.3818 372.118 33.1208 371.796 32.9665 371.422C32.8122 371.047 32.7713 370.635 32.8488 370.237C32.9263 369.839 33.1189 369.473 33.4027 369.184L39.6145 362.35H38.9933C38.5881 362.345 38.1934 362.22 37.8582 361.992C37.523 361.764 37.2621 361.443 37.1078 361.068C36.9534 360.694 36.9125 360.282 36.99 359.884C37.0676 359.486 37.2601 359.12 37.5439 358.83L43.7558 351.997H43.3417C42.9187 352.035 42.4943 351.943 42.1259 351.732C41.7575 351.52 41.4629 351.201 41.2821 350.817C41.1013 350.433 41.043 350.002 41.1151 349.584C41.1872 349.165 41.3862 348.779 41.6852 348.477L49.9677 339.574L58.2502 348.477C58.5491 348.779 58.7482 349.165 58.8203 349.584C58.8924 350.002 58.8341 350.433 58.6532 350.817C58.4724 351.201 58.1779 351.52 57.8094 351.732C57.441 351.943 57.0166 352.035 56.5937 351.997H56.1795L62.3914 358.83C62.6752 359.12 62.8678 359.486 62.9453 359.884C63.0228 360.282 62.9819 360.694 62.8276 361.068C62.6732 361.443 62.4123 361.764 62.0771 361.992C61.742 362.22 61.3473 362.345 60.942 362.35H60.3208Z" stroke="#004A0F" stroke-width="4" stroke-linecap="round" stroke-linejoin="round"/>
<rect x="130.982" y="307.465" width="95.4823" height="95.4823" rx="17.5" fill="#0344B4" stroke="#0344B4" stroke-width="5"/>
<path d="M163.167 364.937C161.65 363.387 160.506 361.512 159.821 359.455C159.136 357.397 158.928 355.211 159.213 353.061C159.498 350.911 160.269 348.854 161.466 347.046C162.664 345.239 164.258 343.727 166.126 342.626C167.994 341.526 170.089 340.864 172.251 340.693C174.412 340.521 176.585 340.844 178.603 341.637C180.622 342.429 182.434 343.671 183.902 345.267C185.369 346.864 186.454 348.773 187.075 350.851H190.729C192.701 350.851 194.62 351.485 196.203 352.659C197.786 353.833 198.95 355.485 199.522 357.372C200.095 359.258 200.045 361.279 199.381 363.134C198.716 364.99 197.473 366.584 195.834 367.678M173.784 379.434L179.909 365.143M173.375 361.059L167.25 375.351M189.709 361.059L183.584 375.351" stroke="white" stroke-width="4" stroke-linecap="round" stroke-linejoin="round"/>
<rect y="457.447" width="100.482" height="100.482" rx="20" fill="#2A78FF"/>
<path d="M29.3975 524.276C30.6808 525.334 31.9641 526.392 34.7447 526.392C40.0919 526.392 40.0919 522.16 45.4391 522.16C48.2197 522.16 49.503 523.218 50.7863 524.276C52.0697 525.334 53.353 526.392 56.1336 526.392C61.4808 526.392 61.4808 522.16 66.828 522.16C69.6086 522.16 70.8919 523.218 72.1752 524.276M66.5713 522.16C68.8721 518.318 70.0701 513.928 70.0363 509.463L50.7863 500.998M50.7863 500.998L31.5363 509.463C31.5363 515.6 33.5469 520.763 37.5466 525.884M50.7863 500.998V509.463M65.7586 507.347V494.65C65.7586 493.527 65.3079 492.451 64.5056 491.657C63.7034 490.863 62.6153 490.418 61.4808 490.418H40.0919C38.9574 490.418 37.8693 490.863 37.0671 491.657C36.2648 492.451 35.8141 493.527 35.8141 494.65V507.347M50.7863 484.069V490.418" stroke="white" stroke-width="4" stroke-linecap="round" stroke-linejoin="round"/>
<rect x="128.482" y="457.447" width="100.482" height="100.482" rx="20" fill="#004A0F"/>
<path d="M187.28 500.338H187.3M161.19 523.115H178.997C183.391 523.115 187.604 521.37 190.711 518.263C193.817 515.157 195.562 510.944 195.562 506.55V500.338M195.562 500.338C195.567 498.574 195.008 496.854 193.967 495.43C192.926 494.005 191.457 492.95 189.775 492.419C188.093 491.887 186.284 491.907 184.614 492.475C182.943 493.043 181.498 494.129 180.488 495.576L158.291 527.256M195.562 500.338L199.704 501.374L195.562 502.409M174.856 523.115V529.327M183.139 522.598V529.327M168.644 523.115C171.197 523.115 173.689 522.328 175.779 520.862C177.869 519.395 179.457 517.32 180.326 514.92C181.195 512.519 181.303 509.908 180.635 507.444C179.968 504.979 178.557 502.78 176.595 501.146" stroke="white" stroke-width="4" stroke-linecap="round" stroke-linejoin="round"/>
<path d="M0 629.929C0 618.883 8.95431 609.929 20 609.929H80.4822C91.5279 609.929 100.482 618.883 100.482 629.929V690.411C100.482 701.457 91.528 710.411 80.4823 710.411H20C8.95433 710.411 0 701.457 0 690.411V629.929Z" fill="#9703B4"/>
<path d="M29.2617 665.244C30.36 665.244 31.4134 664.808 32.19 664.031C32.9667 663.255 33.403 662.201 33.403 661.103V652.821C33.403 651.722 33.8393 650.669 34.6159 649.892C35.3926 649.116 36.4459 648.679 37.5442 648.679C38.6426 648.679 39.6959 649.116 40.4725 649.892C41.2492 650.669 41.6855 651.722 41.6855 652.821V679.739C41.6855 680.837 42.1218 681.89 42.8984 682.667C43.6751 683.444 44.7284 683.88 45.8267 683.88C46.9251 683.88 47.9784 683.444 48.755 682.667C49.5317 681.89 49.968 680.837 49.968 679.739V646.609C49.968 645.51 50.4043 644.457 51.1809 643.68C51.9576 642.904 53.0109 642.467 54.1092 642.467C55.2076 642.467 56.2609 642.904 57.0375 643.68C57.8142 644.457 58.2505 645.51 58.2505 646.609V673.527C58.2505 674.625 58.6868 675.679 59.4634 676.455C60.2401 677.232 61.2934 677.668 62.3917 677.668C63.4901 677.668 64.5434 677.232 65.32 676.455C66.0967 675.679 66.533 674.625 66.533 673.527V665.244C66.533 664.146 66.9693 663.093 67.7459 662.316C68.5226 661.539 69.5759 661.103 70.6742 661.103" stroke="white" stroke-width="4" stroke-linecap="round" stroke-linejoin="round"/>
<path d="M128.482 629.929C128.482 618.883 137.437 609.929 148.482 609.929H208.965C220.01 609.929 228.965 618.883 228.965 629.929V690.411C228.965 701.457 220.01 710.411 208.965 710.411H148.482C137.437 710.411 128.482 701.457 128.482 690.411V629.929Z" fill="#FFC634"/>
<path d="M158.142 681.483C158.142 675.271 161.972 670.385 168.66 669.059C173.671 668.065 178.848 664.918 180.918 662.848M176.777 679.413C173.141 679.424 169.634 678.068 166.951 675.614C164.268 673.16 162.605 669.787 162.293 666.165C161.98 662.542 163.04 658.935 165.263 656.057C167.486 653.18 170.709 651.243 174.292 650.631C186.095 648.353 189.201 647.276 193.342 642.141C195.413 646.283 197.484 650.796 197.484 658.706C197.484 670.095 187.586 679.413 176.777 679.413Z" stroke="black" stroke-width="4" stroke-linecap="round" stroke-linejoin="round"/>
</svg>
