<svg width="703" height="34" viewBox="0 0 703 34" fill="none" xmlns="http://www.w3.org/2000/svg">
<path d="M28.9999 11.0002C30.2981 12.7306 30.9999 14.8351 30.9999 16.998C30.9999 19.1609 30.2981 21.2654 28.9999 22.9958M35.7279 29.7213C37.3993 28.0504 38.7252 26.0668 39.6298 23.8838C40.5344 21.7007 41 19.3609 41 16.998C41 14.6351 40.5344 12.2953 39.6298 10.1122C38.7252 7.92915 37.3993 5.94558 35.7279 4.27474M18.9999 2.40744C18.9995 2.12897 18.9166 1.85685 18.7617 1.62544C18.6067 1.39403 18.3866 1.21369 18.1292 1.10718C17.8718 1.00066 17.5887 0.972755 17.3154 1.02697C17.0422 1.08119 16.7911 1.2151 16.5939 1.41181L9.82597 8.17529C9.56477 8.43794 9.25403 8.64617 8.91175 8.78791C8.56947 8.92964 8.20246 9.00207 7.83197 9.00098H2.99999C2.46956 9.00098 1.96086 9.21162 1.58578 9.58655C1.21071 9.96148 1 10.47 1 11.0002V22.9958C1 23.526 1.21071 24.0345 1.58578 24.4095C1.96086 24.7844 2.46956 24.995 2.99999 24.995H7.83197C8.20246 24.9939 8.56947 25.0664 8.91175 25.2081C9.25403 25.3498 9.56477 25.5581 9.82597 25.8207L16.5919 32.5862C16.7891 32.7837 17.0405 32.9183 17.3143 32.9728C17.5881 33.0274 17.8719 32.9994 18.1298 32.8926C18.3877 32.7858 18.608 32.6048 18.7629 32.3726C18.9178 32.1405 19.0003 31.8676 18.9999 31.5886V2.40744Z" stroke="white" stroke-width="2" stroke-linecap="round" stroke-linejoin="round"/>
<rect x="91" y="5" width="531" height="24" rx="12" fill="#212121"/>
<rect x="91" y="5" width="152" height="24" rx="12" fill="#D9D9D9"/>
<path d="M672 8.42858H697M694.222 8.42858V28.4286C694.222 29.8572 692.833 31.2857 691.444 31.2857H677.556C676.167 31.2857 674.778 29.8572 674.778 28.4286V8.42858M678.944 8.42858V5.57144C678.944 4.14287 680.333 2.71429 681.722 2.71429H687.278C688.667 2.71429 690.056 4.14287 690.056 5.57144V8.42858M681.722 15.5714V24.1429M687.278 15.5714V24.1429" stroke="white" stroke-width="2" stroke-linecap="round" stroke-linejoin="round"/>
</svg>
